<svg width="136" height="40" viewBox="0 0 136 40" fill="none" xmlns="http://www.w3.org/2000/svg">
<g clip-path="url(#clip0_17_47)">
<rect x="0.533813" width="135" height="40" rx="5" fill="white"/>
<path d="M130.534 40H5.53281C2.78281 40 0.533813 37.75 0.533813 35V5C0.533813 2.25 2.78281 0 5.53281 0H130.534C133.284 0 135.534 2.25 135.534 5V35C135.534 37.75 133.284 40 130.534 40Z" fill="white"/>
<path d="M130.534 0H5.53281C2.78281 0 0.533813 2.25 0.533813 5V35C0.533813 37.75 2.78281 40 5.53281 40H130.534C133.284 40 135.534 37.75 135.534 35V5C135.534 2.25 133.284 0 130.534 0ZM130.534 0.8C132.85 0.8 134.734 2.684 134.734 5V35C134.734 37.316 132.85 39.201 130.534 39.201H5.53281C3.21681 39.201 1.33381 37.316 1.33381 35V5C1.33381 2.684 3.21681 0.8 5.53281 0.8H130.534Z" fill="#030404"/>
<path d="M21.202 19.4883L10.555 30.7883C10.556 30.7903 10.556 30.7923 10.557 30.7943C10.883 32.0223 12.004 32.9253 13.334 32.9253C13.866 32.9253 14.365 32.7813 14.793 32.5293L14.827 32.5093L26.811 25.5943L21.202 19.4883Z" fill="#EB4335"/>
<path d="M31.9731 17.5644L31.9631 17.5574L26.7891 14.5574L20.9601 19.7444L26.8091 25.5924L31.9561 22.6234C32.8581 22.1364 33.4701 21.1854 33.4701 20.0884C33.4701 18.9994 32.8661 18.0524 31.9731 17.5644Z" fill="#FABC13"/>
<path d="M10.555 9.34137C10.491 9.57737 10.457 9.82437 10.457 10.0814V30.0484C10.457 30.3054 10.49 30.5534 10.555 30.7884L21.568 19.7774L10.555 9.34137Z" fill="#547DBF"/>
<path d="M21.28 20.0643L26.791 14.5553L14.82 7.61535C14.385 7.35435 13.878 7.20435 13.334 7.20435C12.004 7.20435 10.882 8.10935 10.555 9.33835V9.34135L21.28 20.0643Z" fill="#30A851"/>
<path d="M68.6278 21.705C66.2758 21.705 64.3588 23.493 64.3588 25.958C64.3588 28.407 66.2758 30.211 68.6278 30.211C70.9798 30.211 72.8968 28.407 72.8968 25.958C72.8968 23.493 70.9798 21.705 68.6278 21.705ZM68.6278 28.536C67.3388 28.536 66.2268 27.473 66.2268 25.958C66.2268 24.427 67.3388 23.38 68.6278 23.38C69.9168 23.38 71.0278 24.427 71.0278 25.958C71.0278 27.472 69.9168 28.536 68.6278 28.536ZM59.3138 21.705C56.9618 21.705 55.0448 23.493 55.0448 25.958C55.0448 28.407 56.9618 30.211 59.3138 30.211C61.6658 30.211 63.5828 28.407 63.5828 25.958C63.5838 23.493 61.6658 21.705 59.3138 21.705ZM59.3138 28.536C58.0248 28.536 56.9138 27.473 56.9138 25.958C56.9138 24.427 58.0258 23.38 59.3138 23.38C60.6028 23.38 61.7138 24.427 61.7138 25.958C61.7148 27.472 60.6028 28.536 59.3138 28.536ZM48.2358 23.01V24.814H52.5538C52.4248 25.829 52.0868 26.57 51.5708 27.086C50.9428 27.714 49.9598 28.407 48.2358 28.407C45.5778 28.407 43.4998 26.264 43.4998 23.606C43.4998 20.948 45.5778 18.805 48.2358 18.805C49.6698 18.805 50.7168 19.369 51.4898 20.094L52.7628 18.821C51.6838 17.79 50.2498 17 48.2358 17C44.5948 17 41.5338 19.964 41.5338 23.605C41.5338 27.246 44.5948 30.21 48.2358 30.21C50.2008 30.21 51.6838 29.566 52.8438 28.357C54.0358 27.165 54.4068 25.489 54.4068 24.136C54.4068 23.717 54.3748 23.33 54.3098 23.008H48.2358V23.01ZM93.5438 24.411C93.1898 23.46 92.1098 21.704 89.9028 21.704C87.7118 21.704 85.8918 23.428 85.8918 25.957C85.8918 28.341 87.6958 30.21 90.1128 30.21C92.0618 30.21 93.1898 29.018 93.6568 28.325L92.2068 27.358C91.7238 28.067 91.0628 28.534 90.1128 28.534C89.1618 28.534 88.4858 28.099 88.0508 27.245L93.7378 24.893L93.5438 24.411ZM87.7438 25.829C87.6958 24.186 89.0168 23.348 89.9668 23.348C90.7078 23.348 91.3358 23.718 91.5458 24.25L87.7438 25.829ZM83.1198 29.953H84.9888V17.452H83.1198V29.953ZM80.0588 22.655H79.9948C79.5758 22.156 78.7708 21.704 77.7558 21.704C75.6288 21.704 73.6798 23.573 73.6798 25.973C73.6798 28.357 75.6288 30.21 77.7558 30.21C78.7708 30.21 79.5758 29.759 79.9948 29.243H80.0588V29.855C80.0588 31.482 79.1888 32.352 77.7868 32.352C76.6428 32.352 75.9338 31.53 75.6438 30.838L74.0168 31.515C74.4838 32.643 75.7248 34.028 77.7868 34.028C79.9778 34.028 81.8308 32.739 81.8308 29.598V21.962H80.0588V22.655ZM77.9168 28.536C76.6278 28.536 75.5488 27.457 75.5488 25.974C75.5488 24.476 76.6278 23.38 77.9168 23.38C79.1898 23.38 80.1878 24.475 80.1878 25.974C80.1878 27.456 79.1898 28.536 77.9168 28.536ZM102.298 17.452H97.8268V29.953H99.6918V25.217H102.297C104.365 25.217 106.398 23.72 106.398 21.335C106.398 18.95 104.366 17.452 102.298 17.452ZM102.346 23.477H99.6918V19.192H102.346C103.741 19.192 104.533 20.347 104.533 21.335C104.533 22.303 103.741 23.477 102.346 23.477ZM113.878 21.682C112.527 21.682 111.128 22.277 110.549 23.596L112.206 24.288C112.56 23.596 113.219 23.371 113.911 23.371C114.876 23.371 115.857 23.95 115.873 24.979V25.108C115.535 24.915 114.811 24.625 113.927 24.625C112.142 24.625 110.324 25.606 110.324 27.44C110.324 29.113 111.788 30.19 113.428 30.19C114.683 30.19 115.374 29.627 115.808 28.968H115.872V29.933H117.673V25.14C117.673 22.92 116.017 21.682 113.878 21.682ZM113.652 28.533C113.041 28.533 112.188 28.227 112.188 27.472C112.188 26.507 113.25 26.137 114.166 26.137C114.986 26.137 115.372 26.314 115.871 26.555C115.727 27.713 114.73 28.533 113.652 28.533ZM124.235 21.955L122.096 27.375H122.032L119.813 21.955H117.803L121.132 29.53L119.234 33.744H121.18L126.311 21.955H124.235ZM107.428 29.953H109.294V17.452H107.428V29.953Z" fill="black"/>
<path fill-rule="evenodd" clip-rule="evenodd" d="M74.1428 12.224C73.5528 12.831 72.8198 13.133 71.9428 13.133C71.0658 13.133 70.3328 12.83 69.7438 12.224C69.1538 11.618 68.8598 10.876 68.8598 9.999C68.8598 9.122 69.1538 8.38 69.7438 7.774C70.3328 7.167 71.0658 6.864 71.9428 6.864C72.8148 6.864 73.5468 7.169 74.1388 7.778C74.7308 8.387 75.0268 9.127 75.0268 9.999C75.0268 10.877 74.7318 11.619 74.1428 12.224ZM70.3128 11.722C70.7568 12.172 71.2998 12.396 71.9428 12.396C72.5858 12.396 73.1288 12.171 73.5728 11.722C74.0168 11.272 74.2398 10.698 74.2398 10C74.2398 9.302 74.0168 8.727 73.5728 8.278C73.1298 7.828 72.5858 7.604 71.9428 7.604C71.2998 7.604 70.7568 7.829 70.3128 8.278C69.8698 8.728 69.6468 9.302 69.6468 10C69.6468 10.698 69.8698 11.272 70.3128 11.722Z" fill="black"/>
<path d="M47.9518 10.243C47.9518 11.081 47.7038 11.748 47.2068 12.246C46.6428 12.838 45.9068 13.134 45.0028 13.134C44.1368 13.134 43.3998 12.834 42.7948 12.234C42.1888 11.633 41.8858 10.889 41.8858 10.001C41.8858 9.112 42.1888 8.368 42.7948 7.768C43.3998 7.167 44.1368 6.867 45.0028 6.867C45.4328 6.867 45.8438 6.951 46.2338 7.118C46.6248 7.286 46.9378 7.509 47.1718 7.788L46.6448 8.316C46.2478 7.841 45.7008 7.604 45.0018 7.604C44.3698 7.604 43.8238 7.826 43.3628 8.27C42.9028 8.714 42.6728 9.29 42.6728 10C42.6728 10.71 42.9028 11.286 43.3638 11.731C43.8248 12.175 44.3708 12.397 45.0028 12.397C45.6728 12.397 46.2318 12.174 46.6788 11.727C46.9688 11.436 47.1368 11.031 47.1818 10.512H45.0028V9.79H47.9098C47.9388 9.947 47.9518 10.098 47.9518 10.243Z" fill="black"/>
<path d="M52.5618 7.737H49.8298V9.639H52.2938V10.36H49.8298V12.262H52.5618V13H49.0588V7H52.5618V7.737Z" fill="black"/>
<path d="M55.0408 13H55.8118V7.737H57.4878V7H53.3648V7.737H55.0408V13Z" fill="black"/>
<path d="M60.4718 13V7H61.2428V13H60.4718Z" fill="black"/>
<path d="M63.8898 13H64.6608V7.737H66.3368V7H62.2138V7.737H63.8898V13Z" fill="black"/>
<path d="M76.1088 7V13H76.8778V9.262L76.8448 8.106H76.8778L79.9288 13H80.7338V7H79.9628V10.512L79.9958 11.668H79.9628L77.0468 7H76.1088Z" fill="black"/>
<path fill-rule="evenodd" clip-rule="evenodd" d="M74.1428 12.224C73.5528 12.831 72.8198 13.133 71.9428 13.133C71.0658 13.133 70.3328 12.83 69.7438 12.224C69.1538 11.618 68.8598 10.876 68.8598 9.999C68.8598 9.122 69.1538 8.38 69.7438 7.774C70.3328 7.167 71.0658 6.864 71.9428 6.864C72.8148 6.864 73.5468 7.169 74.1388 7.778C74.7308 8.387 75.0268 9.127 75.0268 9.999C75.0268 10.877 74.7318 11.619 74.1428 12.224ZM70.3128 11.722C70.7568 12.172 71.2998 12.396 71.9428 12.396C72.5858 12.396 73.1288 12.171 73.5728 11.722C74.0168 11.272 74.2398 10.698 74.2398 10C74.2398 9.302 74.0168 8.727 73.5728 8.278C73.1298 7.828 72.5858 7.604 71.9428 7.604C71.2998 7.604 70.7568 7.829 70.3128 8.278C69.8698 8.728 69.6468 9.302 69.6468 10C69.6468 10.698 69.8698 11.272 70.3128 11.722Z" stroke="black" stroke-width="0.2" stroke-miterlimit="10"/>
<path d="M47.9518 10.243C47.9518 11.081 47.7038 11.748 47.2068 12.246C46.6428 12.838 45.9068 13.134 45.0028 13.134C44.1368 13.134 43.3998 12.834 42.7948 12.234C42.1888 11.633 41.8858 10.889 41.8858 10.001C41.8858 9.112 42.1888 8.368 42.7948 7.768C43.3998 7.167 44.1368 6.867 45.0028 6.867C45.4328 6.867 45.8438 6.951 46.2338 7.118C46.6248 7.286 46.9378 7.509 47.1718 7.788L46.6448 8.316C46.2478 7.841 45.7008 7.604 45.0018 7.604C44.3698 7.604 43.8238 7.826 43.3628 8.27C42.9028 8.714 42.6728 9.29 42.6728 10C42.6728 10.71 42.9028 11.286 43.3638 11.731C43.8248 12.175 44.3708 12.397 45.0028 12.397C45.6728 12.397 46.2318 12.174 46.6788 11.727C46.9688 11.436 47.1368 11.031 47.1818 10.512H45.0028V9.79H47.9098C47.9388 9.947 47.9518 10.098 47.9518 10.243Z" stroke="black" stroke-width="0.2" stroke-miterlimit="10"/>
<path d="M52.5618 7.737H49.8298V9.639H52.2938V10.36H49.8298V12.262H52.5618V13H49.0588V7H52.5618V7.737Z" stroke="black" stroke-width="0.2" stroke-miterlimit="10"/>
<path d="M55.0408 13H55.8118V7.737H57.4878V7H53.3648V7.737H55.0408V13Z" stroke="black" stroke-width="0.2" stroke-miterlimit="10"/>
<path d="M60.4718 13V7H61.2428V13H60.4718Z" stroke="black" stroke-width="0.2" stroke-miterlimit="10"/>
<path d="M63.8898 13H64.6608V7.737H66.3368V7H62.2138V7.737H63.8898V13Z" stroke="black" stroke-width="0.2" stroke-miterlimit="10"/>
<path d="M76.1088 7V13H76.8778V9.262L76.8448 8.106H76.8778L79.9288 13H80.7338V7H79.9628V10.512L79.9958 11.668H79.9628L77.0468 7H76.1088Z" stroke="black" stroke-width="0.2" stroke-miterlimit="10"/>
</g>
<defs>
<clipPath id="clip0_17_47">
<rect x="0.533813" width="135" height="40" rx="5" fill="white"/>
</clipPath>
</defs>
</svg>
